<!-- Generated by IcoMoon.io -->
<svg version="1.1" xmlns="http://www.w3.org/2000/svg" width="1024" height="1024" viewBox="0 0 1024 1024">
<title></title>
<g id="icomoon-ignore">
</g>
<path d="M546.204 282.21l136.533 136.533-68.267 136.533h-204.8l-68.267-136.533h-199.535c-46.377 0-73.532 32.261-73.532 72.466v200.601h10.4c2.415-68.267 79.123-136.533 162.568-136.533s168.365 68.267 168.365 136.533h204.8c0-68.267 86.052-136.558 166.103-136.533s160.254 68.267 164.946 136.533h10.284v-220.252c0 0-0.040-17.016-20.8-33.742s-38.365-19.073-38.365-19.073h-145.636l-136.533-136.533zM136.604 725.838c0-56.409 45.956-102.295 102.453-102.295 56.707 0 102.347 45.885 102.347 102.295 0 56.62-45.64 102.505-102.347 102.505-56.497 0-102.453-45.885-102.453-102.505zM682.667 725.838c0-56.409 45.956-102.295 102.453-102.295 56.707 0 102.347 45.885 102.347 102.295 0 56.62-45.64 102.505-102.347 102.505-56.497 0-102.453-45.885-102.453-102.505z"></path>
</svg>
