<?xml version="1.0" encoding="UTF-8" standalone="no"?>
<svg
   xmlns:dc="http://purl.org/dc/elements/1.1/"
   xmlns:cc="http://creativecommons.org/ns#"
   xmlns:rdf="http://www.w3.org/1999/02/22-rdf-syntax-ns#"
   xmlns:svg="http://www.w3.org/2000/svg"
   xmlns="http://www.w3.org/2000/svg"
   xmlns:sodipodi="http://sodipodi.sourceforge.net/DTD/sodipodi-0.dtd"
   xmlns:inkscape="http://www.inkscape.org/namespaces/inkscape"
   version="1.1"
   width="1024"
   height="1024"
   viewBox="0 0 1024 1024"
   id="svg7"
   sodipodi:docname="car4wd.svg"
   inkscape:version="1.0.1 (3bc2e813f5, 2020-09-07)">
  <metadata
     id="metadata13">
    <rdf:RDF>
      <cc:Work
         rdf:about="">
        <dc:format>image/svg+xml</dc:format>
        <dc:type
           rdf:resource="http://purl.org/dc/dcmitype/StillImage" />
        <dc:title></dc:title>
      </cc:Work>
    </rdf:RDF>
  </metadata>
  <defs
     id="defs11" />
  <sodipodi:namedview
     pagecolor="#ffffff"
     bordercolor="#666666"
     borderopacity="1"
     objecttolerance="10"
     gridtolerance="10"
     guidetolerance="10"
     inkscape:pageopacity="0"
     inkscape:pageshadow="2"
     inkscape:window-width="1920"
     inkscape:window-height="992"
     id="namedview9"
     showgrid="false"
     inkscape:zoom="0.05774534"
     inkscape:cx="5804.1121"
     inkscape:cy="-321.26921"
     inkscape:window-x="0"
     inkscape:window-y="27"
     inkscape:window-maximized="1"
     inkscape:current-layer="svg7" />
  <g
     id="icomoon-ignore" />
  <circle
     style="fill:#000000;stroke-width:0.240918;stop-color:#000000"
     id="path838"
     cx="207.5804"
     cy="688.35242"
     r="93.199867" />
  <circle
     style="fill:#ffffff;stroke-width:0.262497;stop-color:#000000"
     id="path840"
     cx="253.51848"
     cy="726.61487"
     r="116.75639" />
  <circle
     style="fill:#000000;stroke-width:0.240918;stop-color:#000000"
     id="path838-5"
     cx="751.62927"
     cy="687.7337"
     r="93.199867" />
  <circle
     style="fill:#ffffff;stroke-width:0.262497;stop-color:#000000"
     id="path840-9"
     cx="797.56738"
     cy="725.99615"
     r="116.75639" />
  <path
     d="M 546.204,282.21 682.737,418.743 614.47,555.276 H 409.67 L 341.403,418.743 H 141.868 c -46.377,0 -73.532,32.261 -73.532,72.466 V 691.81 h 10.4 c 2.415,-68.267 79.123,-136.533 162.568,-136.533 83.445,0 168.365,68.267 168.365,136.533 h 204.8 c 0,-68.267 86.052,-136.558 166.103,-136.533 80.051,0.025 160.254,68.267 164.946,136.533 h 10.284 V 471.558 c 0,0 -0.04,-17.016 -20.8,-33.742 -20.76,-16.726 -38.365,-19.073 -38.365,-19.073 H 751.001 L 614.468,282.21 Z m -393.6,443.628 c 0,-56.409 45.956,-102.295 102.453,-102.295 56.707,0 102.347,45.885 102.347,102.295 0,56.62 -45.64,102.505 -102.347,102.505 -56.497,0 -102.453,-45.885 -102.453,-102.505 z m 544.063,0 c 0,-56.409 45.956,-102.295 102.453,-102.295 56.707,0 102.347,45.885 102.347,102.295 0,56.62 -45.64,102.505 -102.347,102.505 -56.497,0 -102.453,-45.885 -102.453,-102.505 z"
     id="path5"
     sodipodi:nodetypes="cccccssccsccscccsccccssssssssss" />
</svg>
